{"title":"Faster TS XViD READNFO - IMAGiNE","uid":6044851,"size":1418122299,"categoryP":"video","categoryS":"movies","magnet":"?xt=urn:btih:426a5a3987299ff12979ad60e00124bbadbc0532&amp;dn=Faster+TS+XViD+READNFO+-+IMAGiNE&amp;tr=udp%3A%2F%2Ftracker.openbittorrent.com%3A80&amp;tr=udp%3A%2F%2Fopen.demonii.com%3A1337&amp;tr=udp%3A%2F%2Ftracker.coppersurfer.tk%3A6969&amp;tr=udp%3A%2F%2Fexodus.desync.com%3A6969","seeders":0,"leechers":1,"uploader":"SAFCukO09","files":97,"time":1292516069,"description":"*********** **** **** *** ******** *********** **** *** **********\n\n*+* +*+*+* *+*+*+ *+* *+* *+* *+* *+* *+*+* *+* *+*\n\n+*+ +*+ +*+*+ +*+ +*+ +*+ +*+ +*+ *+*+*+ +*+ +*+\n\n+$+ +$+ +*+ +$+ +$++*++$++* *$* +$+ +$+ +*+ +$+ +$++*++$\n\n+$+ +$+ +$+ +$+ +$+ +$+ +$+$ +$+ +$+ +$+$+$ +$+\n\n$+$ $+$ $+$ $+$ $+$ $+$ $+$ $+$ $+$ $+$+$ $+$\n\n$$$$$$$$$$$ $$$ $$$ $$$ $$$ $$$$$$$$ $$$$$$$$$$$ $$$ $$$$ $$$$$$$$$$\n\n\n\n\n\n\n\n\n\nAnother Fine Release Brought to you from - IMAGiNE\n\n\n\n\n\n********************************************************************************************************************\n\nFaster TS XViD - IMAGiNE\n\n\n\n********************************************************************************************************************\n\n\n\nRipper ...........:IMAGiNE IMDB Rating.......:7.4/10\n\nVideo Codec.......:XVID Release Date......:12/16/10\n\nAudio Codec.......:MP3 Theatre Date......:11/24/10\n\nAudio Bitrate.....:128 Runtime...........:1h 33mn\n\nSubtitles.........:NIL Language..........:ENGLISH\n\nResolution........:720 x 400 IMDb URL.......... http://www.imdb.com/title/tt1433108/\n\n\n\n\n\nDETAILS:\n\n\n\nVideo\n\nID : 0\n\nFormat : MPEG-4 Visual\n\nFormat profile : Advanced Simple@L5\n\nFormat settings, BVOP : Yes\n\nFormat settings, QPel : No\n\nFormat settings, GMC : No warppoints\n\nFormat settings, Matrix : Default (H.263)\n\nMuxing mode : Packed bitstream\n\nCodec ID : XVID\n\nCodec ID/Hint : XviD\n\nDuration : 1h 33mn\n\nBit rate : 1 845 Kbps\n\nWidth : 720 pixels\n\nHeight : 400 pixels\n\nDisplay aspect ratio : 16:9\n\nFrame rate : 29.970 fps\n\nColor space : YUV\n\nChroma subsampling : 4:2:0\n\nBit depth : 8 bits\n\nScan type : Progressive\n\nCompression mode : Lossy\n\nBits/(Pixel*Frame) : 0.214\n\nStream size : 1.21 GiB (93%)\n\nWriting library : XviD 1.2.1 (UTC 2008-12-04)\n\n\n\nAudio\n\nID : 1\n\nFormat : MPEG Audio\n\nFormat version : Version 1\n\nFormat profile : Layer 3\n\nCodec ID : 55\n\nCodec ID/Hint : MP3\n\nDuration : 1h 33mn\n\nBit rate mode : Constant\n\nBit rate : 128 Kbps\n\nChannel(s) : 2 channels\n\nSampling rate : 44.1 KHz\n\nCompression mode : Lossy\n\nStream size : 85.6 MiB (6%)\n\nAlignment : Split accross interleaves\n\nInterleave, duration : 33 ms (1.00 video frame)\n\nInterleave, preload duration : 500 ms\n\n\n\n\n\n\n\n\n\n\n\n\n\nSOURCES:\n\n\n\nVIDEO:From a very good friend ...... AND 46 seconds of the LKRG video ...Thanks mates :)\n\nAUDIO:LiNE from LU Synced by us ......Thanks mate :)\n\n\n\nNOTES:\n\n\n\nIMAGiNE bringing you another release.......... Faster\n\n\n\nHere we are with our TS of Faster... This is the same video as our cam video with line audio added.\n\nFirst off we took 46 seconds from the LKRG video release to add to the video on this\n\nrelease to make it a full release.\n\nThe video is much better than the previous source, but still some what cropped.\n\nNot bad but none the less thought we would tell you. We've done our normal filtering changing the\n\nbrightness,contrast,colour, resize etc... TUrned out to be a very watchable cam OMI...\n\nNow for the audio we we're given line by lu, but it was missing 7:28 minutes from the beginning. So we\n\nused cam audio for that portion to make it a complete release. Then it was just a matter of syncing\n\nand filtering it. We remastered the audio as it lacked bassand had a few other issues, so we\n\nlivened it up some for you folks.\n\n\n\n\n","torrent":{"xt":"urn:btih:426a5a3987299ff12979ad60e00124bbadbc0532","amp;dn":"Faster+TS+XViD+READNFO+-+IMAGiNE","amp;tr":["udp%3A%2F%2Ftracker.openbittorrent.com%3A80","udp%3A%2F%2Fopen.demonii.com%3A1337","udp%3A%2F%2Ftracker.coppersurfer.tk%3A6969","udp%3A%2F%2Fexodus.desync.com%3A6969"],"infoHash":"426a5a3987299ff12979ad60e00124bbadbc0532","infoHashBuffer":{"type":"Buffer","data":[66,106,90,57,135,41,159,241,41,121,173,96,224,1,36,187,173,188,5,50]},"announce":[],"urlList":[]}}